<svg width="34" height="10" viewBox="0 0 34 10" fill="none" xmlns="http://www.w3.org/2000/svg">
<path d="M27.4885 0.488346C27.7755 0.201385 28.1573 0.0289998 28.5624 0.00353116C28.9674 -0.0219375 29.3678 0.10126 29.6885 0.350012L29.8452 0.488346L33.1785 3.82168L33.2468 3.89501L33.3385 4.00835L33.4585 4.19335L33.5485 4.38168L33.6068 4.55835L33.6485 4.75335L33.6652 4.90335V5.10001L33.6552 5.19668L33.6218 5.39001L33.5668 5.57001L33.5102 5.70668L33.4235 5.86834L33.3002 6.04335L33.1785 6.18001L29.8452 9.51335C29.5459 9.81544 29.1425 9.99173 28.7176 10.0062C28.2926 10.0206 27.8782 9.87202 27.5592 9.5909C27.2402 9.30979 27.0407 8.91737 27.0015 8.49397C26.9623 8.07057 27.0865 7.64821 27.3485 7.31334L27.4885 7.15501L27.9718 6.66835H25.3335C24.9247 6.66865 24.5301 6.51873 24.2247 6.24709C23.9192 5.97544 23.7242 5.60102 23.6768 5.19501L23.6668 5.00001C23.6669 4.59179 23.8168 4.19778 24.088 3.89272C24.3593 3.58767 24.7331 3.39277 25.1385 3.34501L25.3335 3.33501H27.9752L27.4885 2.84668C27.2013 2.5599 27.0286 2.17818 27.0028 1.77313C26.977 1.36808 27.1 0.967548 27.3485 0.646679L27.4885 0.488346ZM4.15516 0.488346C4.45509 0.189433 4.85755 0.01589 5.2808 0.00296563C5.70405 -0.00995869 6.11635 0.138704 6.43396 0.41876C6.75157 0.698816 6.95067 1.08926 6.99083 1.5108C7.03098 1.93234 6.90918 2.35336 6.65016 2.68835L6.51183 2.84668L6.0235 3.33501H8.66683C9.07505 3.33507 9.46906 3.48494 9.77412 3.75621C10.0792 4.02747 10.2741 4.40126 10.3218 4.80668L10.3335 5.00001C10.3334 5.40849 10.1833 5.80271 9.91168 6.1078C9.64007 6.4129 9.26588 6.60763 8.86016 6.65501L8.66683 6.66668H6.02516L6.51183 7.15334C6.79879 7.44033 6.97118 7.82217 6.99664 8.22721C7.02211 8.63225 6.89891 9.03267 6.65016 9.35335L6.51183 9.51168C6.22484 9.79864 5.84301 9.97103 5.43796 9.99649C5.03292 10.022 4.6325 9.89877 4.31183 9.65001L4.15516 9.51168L0.821829 6.17834L0.660163 5.99168L0.540163 5.80668L0.45183 5.61835L0.393496 5.44335L0.351829 5.24668L0.338496 5.14168L0.333496 4.96668L0.340163 4.85001L0.366829 4.66501L0.416829 4.47835L0.488496 4.29501L0.576829 4.13168L0.688496 3.97168C0.729887 3.91905 0.774412 3.86896 0.821829 3.82168L4.15516 0.488346ZM17.0002 0.416679C18.2157 0.416679 19.3815 0.899565 20.2411 1.75911C21.1006 2.61865 21.5835 3.78444 21.5835 5.00001C21.5835 6.21559 21.1006 7.38138 20.2411 8.24092C19.3815 9.10046 18.2157 9.58335 17.0002 9.58335C15.7846 9.58335 14.6188 9.10046 13.7593 8.24092C12.8997 7.38138 12.4168 6.21559 12.4168 5.00001C12.4168 3.78444 12.8997 2.61865 13.7593 1.75911C14.6188 0.899565 15.7846 0.416679 17.0002 0.416679Z" fill="#3B72FF"/>
</svg>
