<?xml version="1.0" encoding="iso-8859-1"?>
<!-- Uploaded to: SVG Repo, www.svgrepo.com, Generator: SVG Repo Mixer Tools -->
<svg height="800px" width="800px" version="1.1" id="Layer_1" xmlns="http://www.w3.org/2000/svg" xmlns:xlink="http://www.w3.org/1999/xlink" 
	 viewBox="0 0 512 512" xml:space="preserve">
<circle style="fill:#71E2EF;" cx="256" cy="256" r="256"/>
<path style="fill:#38C6D9;" d="M401.427,146.17c-55.167,81.696-139.331,146.706-171.286,242.571
	c-7.521,25.071-35.521,25.1-57.463,26.636l96.297,96.297c135.102-6.746,242.612-118.225,243.014-254.909L401.427,146.17z"/>
<circle style="fill:#919191;" cx="154.29" cy="194.801" r="68.956"/>
<circle style="fill:#707070;" cx="352.539" cy="194.801" r="68.956"/>
<path style="fill:#E5E1DF;" d="M372.336,213.735c0,64.25-52.084,148.571-116.334,148.571s-116.334-84.321-116.334-148.571
	s52.083-87.89,116.333-87.89S372.336,149.485,372.336,213.735z"/>
<path style="fill:#CCC8C6;" d="M372.336,213.735c0-64.153-51.931-87.816-116.046-87.886v236.453
	C320.405,362.049,372.336,277.89,372.336,213.735z"/>
<path style="fill:#CCC4C0;" d="M305.419,325.734c0,0-12.929,132.741-132.741,89.643v-32.754c0,0,64.646,34.478,50.567-56.889"/>
<path style="fill:#A8A19E;" d="M305.419,325.734h-49.131v88.098C299.279,388.727,305.419,325.734,305.419,325.734z"/>
<g>
	<circle style="fill:#121149;" cx="215.333" cy="266.878" r="8.34"/>
	<circle style="fill:#121149;" cx="308.976" cy="266.878" r="8.34"/>
</g>
</svg>