<?xml version="1.0" encoding="iso-8859-1"?>
<!-- Uploaded to: SVG Repo, www.svgrepo.com, Generator: SVG Repo Mixer Tools -->
<svg height="800px" width="800px" version="1.1" id="Layer_1" xmlns="http://www.w3.org/2000/svg" xmlns:xlink="http://www.w3.org/1999/xlink" 
	 viewBox="0 0 393.309 393.309" xml:space="preserve">
<path style="fill:#464C5A;" d="M393.309,196.655C393.309,87.984,305.325,0,196.655,0S0,87.984,0,196.655
	c0,40.21,12.024,77.576,32.776,108.735h327.822C381.285,274.23,393.309,236.865,393.309,196.655z"/>
<path style="fill:#6EB1E1;" d="M32.776,305.39c35.232,53.01,95.483,87.919,163.879,87.919S325.301,358.4,360.533,305.39H32.776z"/>
<circle style="fill:#29B36F;" cx="189.673" cy="321.681" r="49.325"/>
<ellipse style="fill:#FBD303;" cx="189.673" cy="321.681" rx="36.008" ry="49.325"/>
<ellipse style="fill:#F0582F;" cx="189.673" cy="321.681" rx="13.511" ry="49.325"/>
<path style="fill:#BDBDBE;" d="M68.978,203.83c6.271-10.343,15.515-18.877,26.246-24.372c0.905-0.453,1.939-1.034,2.457-1.875
	c1.164-1.939-0.388-4.396-1.875-6.077c-15.127-18.23-23.208-42.085-22.238-65.745c-9.115,10.99-13.123,25.988-10.925,40.016
	c-10.343-26.117-2.327-57.341,16.162-78.61s45.834-33.228,73.568-37.689c37.818-6.077,79.063,1.875,107.766,27.152
	c7.24,6.4,13.705,13.77,21.398,19.653c18.295,13.77,44.283,19.135,55.337,39.24c6.012,10.925,6.206,24.113,4.008,36.331
	c-2.198,12.218-6.271,24.048-8.469,36.267c-2.133,11.83-2.392,23.984-2.327,36.008c0.065,7.822,0.388,15.968,4.202,22.885
	c2.069,3.814,6.077,7.434,10.279,6.206c2.78-0.84,4.59-3.62,5.624-6.335c3.685-9.503,3.168-22.174,12.024-27.152
	c3.491,1.939,4.655,6.465,4.008,10.343c-0.646,3.943-2.521,7.434-3.879,11.184c-3.879,10.925-2.78,24.566-11.507,32.129
	c-6.012,5.172-14.998,5.56-22.497,2.844c-7.434-2.715-13.576-8.016-19.394-13.446c-6.982-6.594-13.834-13.77-17.002-22.691
	c-3.168-9.051-1.681-20.299,5.883-26.182c2.263-1.681,5.042-3.103,6.077-5.689c1.034-2.586-1.616-6.465-4.008-5.042
	c-1.034,0.646-1.422,1.875-1.745,2.909c-2.457,7.822-6.271,15.192-11.119,21.786c-1.034,1.422-2.263,2.844-3.943,2.909
	c-2.263,0.129-4.008-2.069-4.396-4.331c-0.388-2.263,0.129-4.461,0-6.788c-0.517-7.37-7.564-12.154-13.123-16.873
	c-5.624-4.719-10.731-12.929-6.594-18.941c-7.111,5.818-20.945,1.939-29.22,5.947c-6.4,3.103-9.826,10.02-12.541,16.679
	c-6.659,16.549-11.378,33.745-14.093,51.394c-0.84,5.43-1.164,11.636,2.844,15.386c2.844,2.521,7.952,5.042,6.206,8.404
	c-0.905,1.745-3.232,2.069-5.236,2.263c-6.788,0.453-13.705,0.905-20.493,1.422c-6.077,0.388-14.287-0.776-15.063-6.788
	c-0.259-2.004,0.453-3.943,1.164-5.818c9.826-28.574,1.875-59.863-6.012-89.083c-16.226,6.465-31.418,15.451-44.865,26.57
	c-6.982,5.689-14.158,13.899-12.024,22.626c-5.236,1.875-11.766-2.069-12.541-7.628c-6.853-4.59-13.705-9.115-20.558-13.705
	L68.978,203.83z"/>
<path style="fill:#DEDEDF;" d="M337.261,119.273c-6.982-9.762-7.176-23.855-16.291-31.677c-10.15-8.663-27.022-4.267-35.168,6.4
	c-8.145,10.667-8.857,25.212-6.723,38.335c0.711,4.267,1.681,8.663,1.034,12.929c-1.552,9.632-11.184,18.101-8.404,27.41
	c1.164,3.879,4.461,6.853,8.145,8.727c6.4,3.297,14.352,3.556,21.01,0.646c6.077-2.651,10.796-7.628,15.321-12.541
	c5.495-5.883,11.055-11.83,15.58-18.489"/>
<path style="fill:#646B79;" d="M165.301,106.925c4.202,12.8,10.279,24.954,18.036,36.008c2.392,3.491,5.042,6.853,6.335,10.796
	c2.457,7.434-0.453,16.291-6.788,20.945c-4.848,3.556-11.442,4.655-15.774,8.857c5.107,12.347,8.792,25.341,10.99,38.529
	c5.43-12.541-2.521-28.251,4.073-40.21c1.616-2.909,4.008-5.301,5.689-8.21c3.814-6.4,3.879-14.352,7.176-21.01
	c6.594-13.446,23.725-17.907,33.293-29.414c-10.925,6.335-21.333,13.382-31.224,21.075c8.792-7.628,14.998-18.295,17.131-29.737
	c-6.465,8.857-13.705,17.261-21.463,24.954c1.422-9.438,2.844-18.877,4.267-28.186c-3.297,9.115-8.21,17.713-14.481,25.083
	c3.491-8.469,4.008-18.166,1.422-26.893c-1.228,6.659-2.457,13.317-3.685,19.911c-5.042-7.111-9.891-14.287-14.61-21.657"/>
<circle style="fill:#393D47;" cx="320.905" cy="174.352" r="4.784"/>
</svg>