<svg width="40" height="40" viewBox="0 0 40 40" fill="none" xmlns="http://www.w3.org/2000/svg">
<path d="M29.4166 10.5831C28.0197 9.17359 26.3239 8.09584 24.4546 7.42947C22.5853 6.76309 20.5902 6.52513 18.6166 6.73315C12.5 7.34982 7.46662 12.3165 6.78329 18.4332C5.86662 26.5165 12.1166 33.3331 20 33.3331C22.5168 33.3332 24.982 32.619 27.1091 31.2737C29.2362 29.9284 30.938 28.0071 32.0166 25.7331C32.55 24.6165 31.75 23.3332 30.5166 23.3332C29.9 23.3332 29.3166 23.6665 29.05 24.2165C28.0823 26.2982 26.4272 27.9831 24.3632 28.9878C22.2991 29.9926 19.952 30.2557 17.7166 29.7332C14.0166 28.9165 11.0333 25.8998 10.25 22.1998C9.92067 20.7369 9.92449 19.2187 10.2611 17.7575C10.5977 16.2963 11.2586 14.9294 12.1947 13.758C13.1308 12.5866 14.3184 11.6407 15.6694 10.9902C17.0204 10.3397 18.5005 10.0012 20 9.99982C22.7666 9.99982 25.2333 11.1498 27.0333 12.9665L24.5166 15.4831C23.4666 16.5331 24.2 18.3331 25.6833 18.3331H31.6666C32.5833 18.3331 33.3333 17.5831 33.3333 16.6665V10.6831C33.3333 9.19982 31.5333 8.44982 30.4833 9.49982L29.4166 10.5831Z" fill="#5BB5D9"/>
</svg>
