<svg width="38" height="35" viewBox="0 0 38 35" fill="none" xmlns="http://www.w3.org/2000/svg">
<rect x="1.5" y="1.5" width="35" height="31.5" rx="3.5" fill="#FEC346" stroke="#AC8531" stroke-width="3"/>
<path d="M18.456 23.928C18.456 24.2693 18.3653 24.5413 18.184 24.744C18.0027 24.9467 17.7573 25.048 17.448 25.048H14.552C14.2427 25.048 13.9973 24.9467 13.816 24.744C13.6347 24.5413 13.544 24.2693 13.544 23.928V11.96C13.544 11.6187 13.6347 11.3467 13.816 11.144C13.9973 10.9413 14.2427 10.84 14.552 10.84H17.448C17.7573 10.84 18.0027 10.9413 18.184 11.144C18.3653 11.3467 18.456 11.6187 18.456 11.96V23.928ZM25.256 23.928C25.256 24.2693 25.1653 24.5413 24.984 24.744C24.8027 24.9467 24.5573 25.048 24.248 25.048H21.352C21.0427 25.048 20.7973 24.9467 20.616 24.744C20.4347 24.5413 20.344 24.2693 20.344 23.928V11.96C20.344 11.6187 20.4347 11.3467 20.616 11.144C20.7973 10.9413 21.0427 10.84 21.352 10.84H24.248C24.5573 10.84 24.8027 10.9413 24.984 11.144C25.1653 11.3467 25.256 11.6187 25.256 11.96V23.928Z" fill="#AC8531"/>
</svg>
