<svg width="38" height="35" viewBox="0 0 38 35" fill="none" xmlns="http://www.w3.org/2000/svg">
<rect x="1.5" y="1.5" width="35" height="31.5" rx="3.5" fill="#FEC346" stroke="#AC8531" stroke-width="3"/>
<path d="M22.792 23.944C22.7387 24.2747 22.6053 24.5413 22.392 24.744C22.1893 24.9467 21.9333 25.048 21.624 25.048H16.136C15.8267 25.048 15.5653 24.9467 15.352 24.744C15.1387 24.5413 15.0053 24.2747 14.952 23.944L13.192 11.944C13.1387 11.6133 13.1867 11.3467 13.336 11.144C13.496 10.9413 13.7307 10.84 14.04 10.84H16.52C16.8293 10.84 17.0853 10.9413 17.288 11.144C17.4907 11.3467 17.6133 11.6133 17.656 11.944L18.664 20.904H19.096L20.104 11.944C20.1467 11.6133 20.2693 11.3467 20.472 11.144C20.6747 10.9413 20.9307 10.84 21.24 10.84H23.72C24.0293 10.84 24.2587 10.9413 24.408 11.144C24.568 11.3467 24.6213 11.6133 24.568 11.944L22.792 23.944Z" fill="#AC8531"/>
</svg>
