<svg width="38" height="35" viewBox="0 0 38 35" fill="none" xmlns="http://www.w3.org/2000/svg">
<rect x="1.5" y="1.5" width="35" height="31.5" rx="3.5" fill="#B8CEE6" stroke="#A0B2C6" stroke-width="3"/>
<path d="M15.456 23.928C15.456 24.2693 15.3653 24.5413 15.184 24.744C15.0027 24.9467 14.7573 25.048 14.448 25.048H11.552C11.2427 25.048 10.9973 24.9467 10.816 24.744C10.6347 24.5413 10.544 24.2693 10.544 23.928V11.96C10.544 11.6187 10.6347 11.3467 10.816 11.144C10.9973 10.9413 11.2427 10.84 11.552 10.84H14.448C14.7573 10.84 15.0027 10.9413 15.184 11.144C15.3653 11.3467 15.456 11.6187 15.456 11.96V23.928ZM26.592 23.944C26.5387 24.2747 26.4053 24.5413 26.192 24.744C25.9893 24.9467 25.7333 25.048 25.424 25.048H19.936C19.6267 25.048 19.3653 24.9467 19.152 24.744C18.9387 24.5413 18.8053 24.2747 18.752 23.944L16.992 11.944C16.9387 11.6133 16.9867 11.3467 17.136 11.144C17.296 10.9413 17.5307 10.84 17.84 10.84H20.32C20.6293 10.84 20.8853 10.9413 21.088 11.144C21.2907 11.3467 21.4133 11.6133 21.456 11.944L22.464 20.904H22.896L23.904 11.944C23.9467 11.6133 24.0693 11.3467 24.272 11.144C24.4747 10.9413 24.7307 10.84 25.04 10.84H27.52C27.8293 10.84 28.0587 10.9413 28.208 11.144C28.368 11.3467 28.4213 11.6133 28.368 11.944L26.592 23.944Z" fill="#A0B2C6"/>
</svg>
