<svg width="38" height="35" viewBox="0 0 38 35" fill="none" xmlns="http://www.w3.org/2000/svg">
<rect x="1.5" y="1.5" width="35" height="31.5" rx="3.5" fill="#B8CEE6" stroke="#A0B2C6" stroke-width="3"/>
<path d="M15.456 23.928C15.456 24.2693 15.3653 24.5413 15.184 24.744C15.0027 24.9467 14.7573 25.048 14.448 25.048H11.552C11.2427 25.048 10.9973 24.9467 10.816 24.744C10.6347 24.5413 10.544 24.2693 10.544 23.928V11.96C10.544 11.6187 10.6347 11.3467 10.816 11.144C10.9973 10.9413 11.2427 10.84 11.552 10.84H14.448C14.7573 10.84 15.0027 10.9413 15.184 11.144C15.3653 11.3467 15.456 11.6187 15.456 11.96V23.928ZM22.256 23.928C22.256 24.2693 22.1653 24.5413 21.984 24.744C21.8027 24.9467 21.5573 25.048 21.248 25.048H18.352C18.0427 25.048 17.7973 24.9467 17.616 24.744C17.4347 24.5413 17.344 24.2693 17.344 23.928V11.96C17.344 11.6187 17.4347 11.3467 17.616 11.144C17.7973 10.9413 18.0427 10.84 18.352 10.84H21.248C21.5573 10.84 21.8027 10.9413 21.984 11.144C22.1653 11.3467 22.256 11.6187 22.256 11.96V23.928ZM29.056 23.928C29.056 24.2693 28.9653 24.5413 28.784 24.744C28.6027 24.9467 28.3573 25.048 28.048 25.048H25.152C24.8427 25.048 24.5973 24.9467 24.416 24.744C24.2347 24.5413 24.144 24.2693 24.144 23.928V11.96C24.144 11.6187 24.2347 11.3467 24.416 11.144C24.5973 10.9413 24.8427 10.84 25.152 10.84H28.048C28.3573 10.84 28.6027 10.9413 28.784 11.144C28.9653 11.3467 29.056 11.6187 29.056 11.96V23.928Z" fill="#A0B2C6"/>
</svg>
