<svg width="38" height="35" viewBox="0 0 38 35" fill="none" xmlns="http://www.w3.org/2000/svg">
<rect x="1.5" y="1.5" width="35" height="31.5" rx="3.5" fill="#E7D0D0" stroke="#B5A5A5" stroke-width="3"/>
<path d="M22.256 23.928C22.256 24.2693 22.1653 24.5413 21.984 24.744C21.8027 24.9467 21.5573 25.048 21.248 25.048H18.352C18.0427 25.048 17.7973 24.9467 17.616 24.744C17.4347 24.5413 17.344 24.2693 17.344 23.928V11.96C17.344 11.6187 17.4347 11.3467 17.616 11.144C17.7973 10.9413 18.0427 10.84 18.352 10.84H21.248C21.5573 10.84 21.8027 10.9413 21.984 11.144C22.1653 11.3467 22.256 11.6187 22.256 11.96V23.928Z" fill="#B5A5A5"/>
</svg>
